<svg width="88" height="88" viewBox="0 0 88 88" fill="none" xmlns="http://www.w3.org/2000/svg">
<g clip-path="url(#clip0_306_7)">
<path d="M44 85.5C66.9198 85.5 85.5 66.9198 85.5 44C85.5 21.0802 66.9198 2.5 44 2.5C21.0802 2.5 2.5 21.0802 2.5 44C2.5 66.9198 21.0802 85.5 44 85.5Z" stroke="white" stroke-width="5"/>
<path fill-rule="evenodd" clip-rule="evenodd" d="M44 22C38.4081 22 33.875 26.4324 33.875 31.9C33.875 37.3676 38.4081 41.8 44 41.8C49.5919 41.8 54.125 37.3676 54.125 31.9C54.125 26.4324 49.5919 22 44 22ZM38.375 31.9C38.375 28.8624 40.8934 26.4 44 26.4C47.1066 26.4 49.625 28.8624 49.625 31.9C49.625 34.9376 47.1066 37.4 44 37.4C40.8934 37.4 38.375 34.9376 38.375 31.9Z" fill="white"/>
<path fill-rule="evenodd" clip-rule="evenodd" d="M44 45.1001C34.0589 45.1001 26 52.9799 26 62.7001V66.0001H62V62.7001C62 52.9799 53.9411 45.1001 44 45.1001ZM44 49.5001C51.077 49.5001 56.8821 54.8246 57.4538 61.6001H30.5462C31.1179 54.8246 36.923 49.5001 44 49.5001Z" fill="white"/>
</g>
<defs>
<clipPath id="clip0_306_7">
<rect width="88" height="88" fill="white"/>
</clipPath>
</defs>
</svg>
