<svg width="18" height="21" viewBox="0 0 18 21" fill="none" xmlns="http://www.w3.org/2000/svg">
<g clip-path="url(#clip0_49_25)">
<path d="M8.375 2C6.27659 2 4.52114 3.47833 4.09753 5.45107L3.98581 5.97132L3.49192 6.16931C2.61583 6.52053 2 7.37705 2 8.375C2 9.68668 3.06332 10.75 4.375 10.75C4.82845 10.75 5.24939 10.6239 5.60811 10.4054L6 10.1666V12.438C5.49696 12.6393 4.94818 12.75 4.375 12.75C1.95875 12.75 0 10.7912 0 8.375C0 6.72117 0.917386 5.28355 2.26835 4.53994C3.05664 1.9138 5.4913 0 8.375 0C10.2097 0 11.8637 0.775988 13.0256 2.01471C15.8071 2.21965 18 4.54123 18 7.375C18 10.3435 15.5935 12.75 12.625 12.75C12.4137 12.75 12.2052 12.7378 12 12.714V10.6924C12.2022 10.7302 12.4111 10.75 12.625 10.75C14.489 10.75 16 9.23896 16 7.375C16 5.51104 14.489 4 12.625 4C12.6079 4 12.5908 4.00013 12.5737 4.00038L12.0869 4.00759L11.7809 3.62876C10.9773 2.63362 9.75051 2 8.375 2Z" fill="black"/>
<path d="M10 16.5857V7H8V16.5857L6.375 14.9607L4.96078 16.375L9 20.4142L13.0392 16.375L11.625 14.9607L10 16.5857Z" fill="black"/>
</g>
<defs>
<clipPath id="clip0_49_25">
<rect width="18" height="21" fill="white"/>
</clipPath>
</defs>
</svg>
