<svg width="64" height="64" viewBox="0 0 64 64" fill="none" xmlns="http://www.w3.org/2000/svg">
<path d="M32.64 1.91992C15.6736 1.91992 1.92004 15.6735 1.92004 32.6399C1.92004 49.6063 15.6736 63.3599 32.64 63.3599C49.6064 63.3599 63.36 49.6063 63.36 32.6399C63.36 15.6735 49.6064 1.91992 32.64 1.91992ZM25.12 45.3695H18.8992V25.3567H25.12V45.3695ZM21.9712 22.8991C20.0064 22.8991 18.7328 21.5039 18.7328 19.7823C18.7328 18.0223 20.0384 16.6719 22.048 16.6719C24.0576 16.6719 25.2864 18.0223 25.3248 19.7823C25.3312 21.5103 24.0576 22.8991 21.9712 22.8991ZM47.8336 45.3695H41.6128V34.2783C41.6128 31.6991 40.7104 29.9391 38.4576 29.9391C36.7424 29.9391 35.7184 31.1295 35.264 32.2687C35.0976 32.6719 35.0592 33.2479 35.0592 33.8239V45.3631H28.832V31.7311C28.832 29.2351 28.7552 27.1423 28.6656 25.3439H34.0672L34.3552 28.1215H34.4768C35.296 26.8159 37.3056 24.8895 40.6592 24.8895C44.7488 24.8895 47.8208 27.6287 47.8208 33.5231V45.3695H47.8336Z" fill="#232835"/>
</svg>
