<svg width="394" height="81" viewBox="0 0 394 81" fill="none" xmlns="http://www.w3.org/2000/svg">
<g clip-path="url(#clip0_302_6)">
<path fill-rule="evenodd" clip-rule="evenodd" d="M112.259 50.1028L122 39.706L121.996 39.7099L112.322 30.7749L97.3069 16.9151L97.2085 16.8174L94.8136 14.613C85.7777 6.75282 73.9571 2 61.0098 2C46.9046 2 34.1307 7.64397 24.8427 16.7822L22.1997 19.6003L22.1328 19.6745L9.76063 32.8777L0 43.2862L9.70155 52.2329L24.7167 66.0927L24.8033 66.1787L27.2179 68.4027L27.4227 68.5864C36.4271 76.3253 48.169 81.0039 61.0098 81.0039C74.9654 81.0039 87.6093 75.4772 96.8737 66.5109L100.19 62.9737L112.259 50.1028ZM98.6107 41.5C98.6107 62.1129 81.7709 78.8229 60.998 78.8229C40.2251 78.8229 23.3853 62.1129 23.3853 41.5C23.3853 20.8871 40.2251 4.17708 60.998 4.17708C81.7709 4.17708 98.6107 20.8871 98.6107 41.5Z" fill="#232835"/>
<path d="M75.2214 40.8278V41.8753C75.0757 41.8714 74.93 41.8675 74.7842 41.8675C67.3003 41.8675 61.2344 47.8867 61.2344 55.3169C61.2344 55.4146 61.2344 55.5162 61.2383 55.6139H60.3245C60.3284 55.5162 60.3284 55.4146 60.3284 55.3169C60.3284 47.8867 54.2585 41.8675 46.7746 41.8675V40.8356C54.2585 40.8356 60.3284 34.8164 60.3284 27.3901H61.2304C61.2304 34.8164 67.2963 40.8356 74.7803 40.8356C74.926 40.8356 75.0718 40.8356 75.2175 40.8278H75.2214Z" fill="#8118F2"/>
</g>
<g clip-path="url(#clip1_302_6)">
<path d="M194.63 1.43921L187.329 14.2246V17.1228H185.742V14.1371L178.497 1.43921H170L182.749 23.2053V34.5913H190.234V23.2053L202.987 1.43921H194.63V1.43921Z" fill="#232835"/>
<path d="M218.554 10.086V13.2466H216.967V11.4338C215.264 10.1934 213.17 9.50562 210.808 9.50562C204.046 9.50562 198.927 15.0356 198.927 22.3347C198.927 29.6338 204.046 35.1638 210.808 35.1638C213.17 35.1638 215.264 34.476 216.967 33.2357V31.4228H218.554V34.5834H225.296V10.086H218.554V10.086ZM212.211 28.3895C208.782 28.3895 206.224 25.8014 206.224 22.3387C206.224 18.876 208.782 16.2879 212.211 16.2879C215.64 16.2879 218.242 18.8839 218.242 22.3387C218.242 25.7934 215.684 28.3895 212.211 28.3895Z" fill="#232835"/>
<path d="M229.016 31.4665L232.301 26.9503C234.184 28.5365 236.502 29.594 239.355 29.594C241.673 29.594 243.268 28.9221 243.268 27.6221C243.268 26.2307 241.386 25.7496 238.872 25.1732C234.959 24.3065 229.792 23.1536 229.792 17.3891C229.792 12.1056 234.428 9.50952 240.031 9.50952C244.379 9.50952 247.516 11.0481 249.834 12.7297L246.549 17.2459C244.715 15.9976 242.684 15.0832 240.271 15.0832C238.388 15.0832 236.842 15.612 236.842 16.8603C236.842 18.2518 238.724 18.6851 241.238 19.2138C245.102 20.0288 250.318 21.2334 250.318 26.9503C250.318 32.3292 245.586 35.1677 239.595 35.1677C234.911 35.1677 231.434 33.4384 229.016 31.4665V31.4665Z" fill="#232835"/>
<path d="M268.666 9.50554C266.4 9.50554 264.425 10.1218 262.767 11.2945V13.827H261.18V0H254.13V34.5873H261.18V21.2811C261.18 18.2518 263.258 16.2839 266.304 16.2839C269.149 16.2839 271.032 18.204 271.032 21.1857V34.5873H278.089V18.8322C278.089 13.2147 274.321 9.50952 268.666 9.50952V9.50554Z" fill="#232835"/>
<path d="M182.793 62.4638L199.746 46.2754H196.996L177.298 64.9366V66.4632H176.502V59.2317H176.518V46.2754H174.44V79.4196H176.518V68.4232L181.298 63.8593L197.38 79.4196H200.182L182.793 62.4678V62.4638Z" fill="#232835"/>
<path d="M200.861 67.1709C200.861 59.8678 206.416 54.3418 213.806 54.3418C221.195 54.3418 226.798 59.8678 226.798 67.1709C226.798 74.474 221.195 80 213.806 80C206.416 80 200.861 74.474 200.861 67.1709V67.1709ZM224.768 67.1709C224.768 60.9253 220.084 56.2183 213.806 56.2183C207.527 56.2183 202.843 60.9253 202.843 67.1709C202.843 73.4165 207.527 78.1235 213.806 78.1235C220.084 78.1235 224.768 73.4165 224.768 67.1709Z" fill="#232835"/>
<path d="M245.102 54.3458C241.038 54.3458 237.853 55.9679 235.942 58.7468V60.1541H235.155V60.0945C235.155 60.0945 235.147 60.1024 235.147 60.1104V44.8284H233.217V79.4157H235.147V65.3462C235.147 59.8679 238.916 56.2143 244.615 56.2143C250.314 56.2143 253.695 59.8162 253.695 65.2508V79.4157H255.625V64.7658C255.625 58.4725 251.429 54.3419 245.102 54.3419V54.3458Z" fill="#232835"/>
<path d="M292.573 54.3459C288.412 54.3459 285.227 56.1668 283.621 59.3114V60.8897H282.825V59.2756C281.367 56.1787 278.273 54.3459 274.269 54.3459C270.744 54.3459 267.882 55.6976 266.148 58.0949V60.2059H265.353V54.9184H263.45V79.4197H265.381V64.2848C265.381 59.4347 268.714 56.2145 273.737 56.2145C278.761 56.2145 281.806 59.383 281.806 64.1894V79.4197H283.737V64.2848C283.737 59.4347 287.07 56.2145 292.093 56.2145C297.117 56.2145 300.11 59.383 300.11 64.1894V79.4197H302.04V63.7123C302.04 58.0432 298.272 54.3459 292.573 54.3459Z" fill="#232835"/>
<path d="M332.182 54.9184V61.9671H331.395V60.0588C329.233 56.5802 325.428 54.3459 320.88 54.3459C313.638 54.3459 308.227 59.868 308.227 67.1671C308.227 74.4662 313.638 79.9962 320.88 79.9962C325.432 79.9962 329.237 77.758 331.395 74.2754V72.3671H332.182V79.4158H334.112V54.9145H332.182V54.9184ZM321.216 78.1277C314.941 78.1277 310.257 73.4167 310.257 67.1671C310.257 60.9175 314.941 56.2145 321.216 56.2145C327.49 56.2145 332.182 60.9255 332.182 67.1671C332.182 73.4087 327.446 78.1277 321.216 78.1277Z" fill="#232835"/>
<path d="M353.863 54.5366C349.935 54.5366 346.789 56.266 344.895 59.2397V61.2354H344.108V54.9183H342.181V79.4196H344.112V66.5468C344.112 60.4522 347.924 56.5562 353.859 56.5562H354.539V54.5406H353.859L353.863 54.5366Z" fill="#232835"/>
<path d="M359.13 47.0905C359.13 46.2239 359.854 45.552 360.725 45.552C361.596 45.552 362.272 46.2239 362.272 47.0905C362.272 47.9572 361.596 48.6291 360.725 48.6291C359.854 48.6291 359.13 47.9572 359.13 47.0905ZM359.758 54.9224H361.688V79.4237H359.758V54.9224Z" fill="#232835"/>
<path d="M392.07 54.9184V61.9671H391.274V60.0469C389.108 56.5762 385.308 54.3459 380.768 54.3459C373.526 54.3459 368.115 59.868 368.115 67.1671C368.115 74.4662 373.526 79.9962 380.768 79.9962C385.312 79.9962 389.108 77.7659 391.274 74.2873V72.3671H392.07V79.4158H394V54.9145H392.07V54.9184ZM381.103 78.1277C374.829 78.1277 370.137 73.4167 370.137 67.1671C370.137 60.9175 374.829 56.2145 381.103 56.2145C387.378 56.2145 392.07 60.9255 392.07 67.1671C392.07 73.4087 387.334 78.1277 381.103 78.1277Z" fill="#232835"/>
</g>
<defs>
<clipPath id="clip0_302_6">
<rect width="122" height="79" fill="white" transform="translate(0 2)"/>
</clipPath>
<clipPath id="clip1_302_6">
<rect width="224" height="80" fill="white" transform="translate(170)"/>
</clipPath>
</defs>
</svg>
