<svg width="89" height="88" viewBox="0 0 89 88" fill="none" xmlns="http://www.w3.org/2000/svg">
<g clip-path="url(#clip0_306_26)">
<path d="M44.5 85.5C67.4198 85.5 86 66.9198 86 44C86 21.0802 67.4198 2.5 44.5 2.5C21.5802 2.5 3 21.0802 3 44C3 66.9198 21.5802 85.5 44.5 85.5Z" stroke="white" stroke-width="5"/>
<path fill-rule="evenodd" clip-rule="evenodd" d="M44 23L68 36L44 49L20 36L44 23ZM29.752 36L44 43.7177L58.248 36L44 28.2823L29.752 36Z" fill="white"/>
<path d="M24.3042 43L44 53.7619L63.6957 43L66 46.9791L44 59L22 46.9791L24.3042 43Z" fill="white"/>
<path d="M44 64.7619L24.3042 54L22 57.9791L44 70L66 57.9791L63.6957 54L44 64.7619Z" fill="white"/>
</g>
<defs>
<clipPath id="clip0_306_26">
<rect width="89" height="88" fill="white"/>
</clipPath>
</defs>
</svg>
